<?xml version="1.0" encoding="UTF-8" standalone="no"?>
<!-- Created with Inkscape (http://www.inkscape.org/) -->

<svg
   version="1.1"
   id="svg1"
   width="1599.1587"
   height="400.91879"
   viewBox="0 0 1599.1587 400.91879"
   sodipodi:docname="China_UnionPay_full.svg"
   inkscape:version="1.3.2 (091e20e, 2023-11-25, custom)"
   xml:space="preserve"
   xmlns:inkscape="http://www.inkscape.org/namespaces/inkscape"
   xmlns:sodipodi="http://sodipodi.sourceforge.net/DTD/sodipodi-0.dtd"
   xmlns="http://www.w3.org/2000/svg"
   xmlns:svg="http://www.w3.org/2000/svg"><defs
     id="defs1" /><sodipodi:namedview
     id="namedview1"
     pagecolor="#ffffff"
     bordercolor="#000000"
     borderopacity="0.25"
     inkscape:showpageshadow="2"
     inkscape:pageopacity="0.0"
     inkscape:pagecheckerboard="0"
     inkscape:deskcolor="#d1d1d1"
     inkscape:zoom="0.44773542"
     inkscape:cx="799.57935"
     inkscape:cy="199.89484"
     inkscape:window-width="1366"
     inkscape:window-height="705"
     inkscape:window-x="-8"
     inkscape:window-y="-8"
     inkscape:window-maximized="1"
     inkscape:current-layer="g4" /><g
     id="g4"
     transform="matrix(2.2932134,0,0,2.2932134,-5.104554e-4,-0.00153087)"
     style="display:inline"><path
       d="m 50.041631,6.675633e-4 h 63.778579 c 8.90292,0 14.44023,7.2566458367 12.36335,16.1890984367 L 96.490071,143.67542 c -2.095535,8.90136 -11.009332,16.16422 -19.918466,16.16422 H 12.799243 c -8.890479,0 -14.4402274,-7.26286 -12.36334679,-16.16422 L 30.141819,16.189766 C 32.218699,7.2573134 41.127833,6.675633e-4 50.041631,6.675633e-4"
       fill="#e21836"
       id="path1"
       style="fill:#e0002a;fill-opacity:1" /><path
       d="m 108.51328,6.675633e-4 h 73.34374 c 8.90136,0 4.88751,7.2566458367 2.79353,16.1890984367 L 154.96172,143.67542 c -2.0831,8.90136 -1.43329,16.16422 -10.35331,16.16422 H 71.264678 c -8.920017,0 -14.440229,-7.26286 -12.344693,-16.16422 L 88.607253,16.189766 C 90.715224,7.2573134 99.605704,6.675633e-4 108.51328,6.675633e-4"
       fill="#00447c"
       id="path2-3" /><path
       d="m 178.94783,6.675633e-4 h 63.77858 c 8.91535,0 14.45266,7.2566458367 12.35868,16.1890984367 L 225.39627,143.67542 c -2.09553,8.90136 -11.01555,16.16422 -19.92935,16.16422 h -63.74904 c -8.92002,0 -14.45267,-7.26286 -12.36335,-16.16422 L 159.04802,16.189766 C 161.1249,7.2573134 170.02781,6.675633e-4 178.94783,6.675633e-4"
       fill="#007b84"
       id="path3-6" /><path
       d="m 66.698338,40.856143 c -6.558652,0.06685 -8.495623,0 -9.114334,-0.146127 -0.237847,1.130158 -4.663655,21.546082 -4.676091,21.563182 -0.952941,4.130443 -1.64627,7.074763 -4.001416,8.97598 -1.336914,1.105285 -2.897683,1.638497 -4.707181,1.638497 -2.908566,0 -4.603027,-1.444179 -4.88751,-4.183298 l -0.05441,-0.940503 c 0,0 0.886094,-5.532649 0.886094,-5.56374 0,0 4.645,-18.604871 5.476685,-21.064171 0.04353,-0.13991 0.05596,-0.212974 0.06685,-0.27982 -9.04127,0.07928 -10.644013,0 -10.754386,-0.146127 -0.06063,0.200537 -0.284483,1.354014 -0.284483,1.354014 L 29.90522,63.033374 29.497927,64.81178 28.70977,70.628911 c 0,1.725552 0.338892,3.133976 1.013567,4.324762 2.160827,3.776006 8.324623,4.341862 11.811482,4.341862 4.492653,0 8.707042,-0.954494 11.55498,-2.697146 4.943473,-2.921002 6.23686,-7.486719 7.390338,-11.544099 l 0.534765,-2.081544 c 0,0 4.784909,-19.323074 5.597939,-21.836783 0.03109,-0.13991 0.04353,-0.212974 0.0855,-0.27982 z m 16.280351,15.588109 c -1.153478,0 -3.261449,0.279819 -5.154893,1.207886 -0.687112,0.352883 -1.336914,0.760176 -2.022471,1.165914 l 0.618711,-2.233891 -0.338892,-0.376201 c -4.015407,0.813031 -4.913937,0.921849 -8.623096,1.444178 l -0.310911,0.206755 c -0.430611,3.570805 -0.81303,6.255515 -2.409554,13.274315 -0.60783,2.586774 -1.238978,5.19842 -1.871681,7.778975 l 0.171001,0.328011 c 3.800879,-0.200537 4.954355,-0.200537 8.257777,-0.146129 l 0.267383,-0.290701 c 0.419729,-2.149944 0.474138,-2.653619 1.40376,-7.007917 0.436829,-2.064444 1.347796,-6.600625 1.797061,-8.215804 0.825467,-0.38242 1.640052,-0.758622 2.417327,-0.758622 1.851472,0 1.626062,1.615179 1.554552,2.258764 -0.07928,1.080413 -0.753957,4.609245 -1.445733,7.639066 l -0.461702,1.955625 c -0.321791,1.444179 -0.674675,2.847938 -0.996467,4.27968 l 0.139909,0.286038 c 3.74647,-0.200537 4.889065,-0.200537 8.088331,-0.146129 l 0.376202,-0.290701 c 0.578293,-3.357831 0.747739,-4.256361 1.773743,-9.145426 l 0.516111,-2.246326 c 1.002686,-4.396272 1.50636,-6.625498 0.74774,-8.441214 -0.802149,-2.034908 -2.726684,-2.526146 -4.494208,-2.526146 z m 18.187011,4.602871 c -1.991384,0.38242 -3.261453,0.637366 -4.523748,0.802148 -1.251415,0.200538 -2.471738,0.38242 -4.396272,0.649803 l -0.152346,0.138355 -0.13991,0.110373 c -0.200537,1.433297 -0.340447,2.672274 -0.606275,4.128889 -0.225409,1.50636 -0.572074,3.217921 -1.136376,5.677221 -0.436829,1.882562 -0.662239,2.538583 -0.910968,3.200822 -0.24251,0.662238 -0.509893,1.305823 -1.001131,3.157293 l 0.115037,0.171001 0.09638,0.15701 c 1.798616,-0.0855 2.975412,-0.146128 4.184853,-0.15701 1.207886,-0.04353 2.4593,0 4.396271,0.01088 l 0.169446,-0.138355 0.181882,-0.152346 c 0.279819,-1.669588 0.321792,-2.118854 0.492793,-2.933438 0.169446,-0.873659 0.461702,-2.083099 1.17835,-5.313457 0.338892,-1.517242 0.716649,-3.029821 1.067974,-4.578154 0.36533,-1.542115 0.74774,-3.060912 1.11151,-4.578153 l -0.0544,-0.183438 z m 0.0424,-6.20608 c -1.809502,-1.067977 -4.985451,-0.729085 -7.122959,0.746185 -2.13129,1.445733 -2.3738,3.497741 -0.57052,4.579708 1.778406,1.03844 4.966791,0.729085 7.085649,-0.758621 2.12662,-1.476824 2.39245,-3.510177 0.60783,-4.567272 z m 10.94326,24.73369 c 3.66097,0 7.41366,-1.008904 10.23827,-4.00297 2.17327,-2.428209 3.16973,-6.040986 3.51485,-7.528692 1.12394,-4.931037 0.24872,-7.233328 -0.85034,-8.635533 -1.66959,-2.137509 -4.62013,-2.823066 -7.68104,-2.823066 -1.84059,0 -6.22443,0.181883 -9.6491,3.339177 -2.4593,2.277418 -3.59568,5.367866 -4.28124,8.330841 -0.69177,3.018938 -1.4877,8.45365 3.51018,10.476121 1.54212,0.662239 3.76512,0.844122 5.19842,0.844122 z m -0.286,-11.094833 c 0.84412,-3.734032 1.84059,-6.868009 4.38384,-6.868009 1.99293,0 2.13751,2.331828 1.25141,6.078296 -0.15856,0.831685 -0.88609,3.923689 -1.87012,5.240394 -0.68712,0.971594 -1.50015,1.560769 -2.39868,1.560769 -0.26738,0 -1.85769,0 -1.88256,-2.361364 -0.0124,-1.165913 0.22541,-2.3567 0.51611,-3.650086 z m 23.1908,10.614632 0.28604,-0.290701 c 0.40573,-2.149945 0.47258,-2.655174 1.37111,-7.007918 0.44927,-2.064444 1.37889,-6.600625 1.81572,-8.215804 0.82702,-0.383974 1.62761,-0.760176 2.42976,-0.760176 1.83903,0 1.61518,1.61518 1.54212,2.258764 -0.0669,1.081967 -0.74152,4.609244 -1.44574,7.639065 l -0.43683,1.955626 c -0.33422,1.445732 -0.69799,2.847938 -1.01978,4.281234 l 0.13991,0.286038 c 3.7589,-0.200538 4.85797,-0.200538 8.07589,-0.146128 l 0.38864,-0.290701 c 0.5643,-3.359386 0.71665,-4.257917 1.77374,-9.145426 l 0.50368,-2.247881 c 1.00735,-4.396272 1.51724,-6.623944 0.77106,-8.43966 -0.82547,-2.034907 -2.76244,-2.526146 -4.50509,-2.526146 -1.15504,0 -3.27389,0.278265 -5.15645,1.207887 -0.67312,0.352883 -1.3478,0.758621 -2.01004,1.165914 l 0.57674,-2.233891 -0.30935,-0.377756 c -4.01385,0.814585 -4.93104,0.923404 -8.63554,1.445733 l -0.28448,0.206755 c -0.44926,3.570804 -0.81458,6.25396 -2.41111,13.274314 -0.60783,2.586774 -1.23897,5.19842 -1.87012,7.778975 l 0.16944,0.328011 c 3.8071,-0.200538 4.94348,-0.200538 8.24068,-0.146128 z m 27.61738,0.14535 c 0.23629,-1.153477 1.64005,-7.990394 1.65249,-7.990394 0,0 1.19545,-5.016537 1.26851,-5.19842 0,0 0.37621,-0.522329 0.75241,-0.729084 h 0.55342 c 5.22174,0 11.11815,0 15.73983,-3.399804 3.14486,-2.331827 5.2948,-5.775159 6.25396,-9.96001 0.24873,-1.026004 0.43217,-2.246327 0.43217,-3.46665 0,-1.602743 -0.3218,-3.188385 -1.25142,-4.427363 -2.3567,-3.297203 -7.04989,-3.357831 -12.4675,-3.382703 -0.0171,0 -2.67072,0.02487 -2.67072,0.02487 -6.93485,0.0855 -9.71595,0.06063 -10.85854,-0.07928 -0.0964,0.50523 -0.27827,1.40376 -0.27827,1.40376 0,0 -2.48417,11.513008 -2.48417,11.531662 0,0 -5.9446,24.477966 -6.22442,25.631443 6.05497,-0.07306 8.53759,-0.07306 9.58225,0.04197 z m 4.60303,-20.451678 c 0,0 2.64118,-11.489689 2.62875,-11.446161 l 0.0855,-0.589175 0.0373,-0.449266 1.05554,0.108819 c 0,0 5.44715,0.46792 5.57463,0.480356 2.14994,0.831685 3.03603,2.975412 2.41732,5.773604 -0.5643,2.557237 -2.223,4.707182 -4.35429,5.745622 -1.75509,0.879876 -3.90504,0.95294 -6.12027,0.95294 h -1.4333 z m 16.44467,9.904514 c -0.698,2.975411 -1.50015,8.410123 3.47286,10.347094 1.58564,0.674675 3.0065,0.875212 4.45068,0.802148 1.52502,-0.08239 2.93811,-0.84723 4.24704,-1.947852 -0.11815,0.452374 -0.23629,0.904748 -0.35444,1.358678 l 0.22541,0.2907 c 3.57702,-0.150791 4.68697,-0.150791 8.56247,-0.121255 l 0.35133,-0.267383 c 0.56585,-3.32674 1.09907,-6.557097 2.56967,-12.92143 0.71665,-3.048476 1.43174,-6.067414 2.16705,-9.103454 l -0.11504,-0.334228 c -4.00142,0.741521 -5.07095,0.900085 -8.92002,1.445733 l -0.29225,0.237846 c -0.0389,0.309356 -0.0793,0.606275 -0.11659,0.903194 -0.59851,-0.96693 -1.46595,-1.792397 -2.80441,-2.306954 -1.71157,-0.673121 -5.73164,0.194319 -9.1874,3.340731 -2.42821,2.246327 -3.59413,5.324338 -4.25636,8.276432 z m 8.4039,0.181882 c 0.85656,-3.667187 1.84059,-6.770071 4.39005,-6.770071 1.61207,0 2.46086,1.487706 2.2883,4.024733 -0.1368,0.632703 -0.28448,1.299605 -0.46015,2.053563 -0.25494,1.08974 -0.53165,2.170154 -0.80059,3.252121 -0.2736,0.739967 -0.59228,1.43796 -0.94206,1.902771 -0.65602,0.929622 -2.21679,1.50636 -3.11532,1.50636 -0.25494,0 -1.82815,0 -1.88256,-2.31939 -0.0124,-1.155032 0.22541,-2.344263 0.52233,-3.650087 z m 43.88576,-12.108556 -0.30935,-0.352883 c -3.95945,0.802148 -4.67609,0.929621 -8.31374,1.42086 l -0.26739,0.267383 c -0.0124,0.04353 -0.0233,0.110373 -0.042,0.171 l -0.0124,-0.06063 c -2.70802,6.247742 -2.62874,4.899946 -4.8331,9.818546 -0.0124,-0.223855 -0.0124,-0.363765 -0.0249,-0.601611 l -0.55187,-10.662668 -0.34666,-0.352883 c -4.14754,0.802148 -4.24548,0.929621 -8.07589,1.42086 l -0.29848,0.267383 c -0.042,0.127473 -0.042,0.267382 -0.0668,0.419728 l 0.0249,0.05441 c 0.4788,2.446864 0.36376,1.901217 0.84412,5.762722 0.22386,1.894998 0.52233,3.800878 0.74618,5.672558 0.37776,3.132421 0.58918,4.674536 1.05088,9.454781 -2.58677,4.268799 -3.19927,5.883978 -5.68966,9.630447 l 0.0171,0.03731 -1.75353,2.77332 c -0.20054,0.292256 -0.38242,0.492793 -0.63737,0.578293 -0.27982,0.138356 -0.64358,0.163228 -1.14881,0.163228 h -0.97159 l -1.44418,4.803564 4.95435,0.0855 c 2.90857,-0.01244 4.73672,-1.372668 5.72075,-3.200821 l 3.11532,-5.338329 h -0.0497 l 0.32801,-0.376202 c 2.09553,-4.511308 18.0359,-31.855867 18.0359,-31.855867 z m -52.28982,63.087576 h -2.10175 l 7.77897,-25.729375 h 2.58056 l 0.81924,-2.650509 0.0793,2.947429 c -0.0964,1.821934 1.33691,3.437113 5.10203,3.169731 h 4.3543 l 1.49859,-4.954356 h -1.6385 c -0.94205,0 -1.37888,-0.237847 -1.32447,-0.747739 l -0.0793,-2.99873 h -8.06345 v 0.01554 c -2.60699,0.05441 -10.39218,0.250284 -11.9685,0.670012 -1.90743,0.491239 -3.91747,1.936971 -3.91747,1.936971 l 0.78972,-2.653619 h -7.54269 l -1.57165,5.265265 -7.88313,26.12269 h -1.52968 l -1.50014,4.9186 h 15.02319 l -0.50368,1.64005 h 7.40277 l 0.49124,-1.64005 h 2.07688 z m -6.1638,-20.501418 C 176.3494,99.68643 174.10152,100.7 174.10152,100.7 l 1.99915,-6.575755 h 5.99279 l -1.44573,4.791128 c 0,0 -1.85147,0.108818 -3.09045,0.436829 z m 0.11504,9.394158 c 0,0 -1.88256,0.23629 -3.12154,0.51611 -1.22032,0.36998 -3.50862,1.53589 -3.50862,1.53589 l 2.06444,-6.84313 h 6.02389 z m -3.35783,11.16789 h -6.01145 l 1.74265,-5.77516 h 5.9928 z m 14.47691,-15.95902 h 8.66507 l -1.24519,4.03251 h -8.78011 l -1.31826,4.4087 h 7.68259 l -5.81713,8.19093 c -0.40729,0.60162 -0.77261,0.81459 -1.17835,0.98404 -0.40729,0.20675 -0.94205,0.44926 -1.56076,0.44926 h -2.1313 l -1.46438,4.82844 h 5.57462 c 2.89768,0 4.60924,-1.31826 5.87309,-3.04848 l 3.98898,-5.45958 0.85656,5.54353 c 0.18188,1.03844 0.92807,1.64627 1.4333,1.88256 0.55808,0.27982 1.13482,0.76018 1.9494,0.83168 0.87366,0.0373 1.50481,0.0669 1.92454,0.0669 h 2.73912 l 1.64471,-5.40362 h -1.08041 c -0.62027,0 -1.68824,-0.10416 -1.87012,-0.29847 -0.18189,-0.2363 -0.18189,-0.60006 -0.27982,-1.15348 l -0.869,-5.55597 h -3.55837 l 1.56077,-1.85769 h 8.76301 l 1.34779,-4.4087 h -8.1132 l 1.26385,-4.03251 h 8.08833 l 1.50014,-4.973011 h -24.1142 z m -73.18548,17.08188 2.02247,-6.7281 h 8.31219 l 1.5188,-5.0041 h -8.31996 l 1.27007,-4.14133 h 8.1303 l 1.50636,-4.84554 h -20.34286 l -1.47527,4.84554 h 4.62168 l -1.23275,4.14133 h -4.63412 l -1.5359,5.0896 h 4.62013 l -2.69559,8.90136 c -0.36377,1.17835 0.171,1.62761 0.50989,2.17482 0.34666,0.53321 0.69799,0.88609 1.4877,1.08663 0.81459,0.18188 1.37267,0.2907 2.13129,0.2907 h 9.37084 l 1.66959,-5.54353 -4.15376,0.57052 c -0.80215,0 -3.02361,-0.0964 -2.7811,-0.8379 z m 0.95341,-32.208444 -2.10642,3.807097 c -0.45082,0.831685 -0.85655,1.347796 -1.22187,1.585642 -0.3218,0.200537 -0.95916,0.284483 -1.88257,0.284483 h -1.09906 l -1.46905,4.87041 h 3.65008 c 1.75509,0 3.10289,-0.643584 3.74647,-0.965377 0.69178,-0.369983 0.87366,-0.158564 1.40842,-0.674675 l 1.23276,-1.067977 h 11.39797 l 1.51258,-5.070946 h -8.34328 l 1.45662,-2.768657 z m 16.82709,32.306224 c -0.19432,-0.27982 -0.0544,-0.77262 0.24251,-1.79862 l 3.11532,-10.31134 h 11.08239 c 1.61518,-0.0233 2.7811,-0.042 3.53972,-0.0964 0.81458,-0.0855 1.70068,-0.3762 2.66605,-0.89853 0.99647,-0.5472 1.50636,-1.12394 1.93697,-1.78618 0.48036,-0.66068 1.25142,-2.10642 1.91366,-4.33564 l 3.91591,-13.048909 -11.50057,0.06685 c 0,0 -3.54127,0.522329 -5.10048,1.099067 -1.57321,0.643585 -3.82109,2.440647 -3.82109,2.440647 l 1.03844,-3.577023 h -7.1043 l -9.94602,32.986018 c -0.35288,1.28095 -0.58917,2.21058 -0.64358,2.76866 -0.0187,0.60161 0.75862,1.197 1.26229,1.64627 0.5954,0.44927 1.47527,0.3762 2.31939,0.44927 0.88765,0.0668 2.14995,0.10881 3.8926,0.10881 h 5.45958 l 1.67581,-5.65856 -4.88751,0.4617 c -0.52233,0 -0.90008,-0.27982 -1.05709,-0.51611 z m 5.36786,-19.07435 h 11.64048 l -0.73996,2.31939 c -0.10416,0.0544 -0.35289,-0.11504 -1.53746,0.0249 h -10.07971 z m 2.33183,-7.778974 h 11.73842 l -0.84413,2.793529 c 0,0 -5.53264,-0.05441 -6.41874,0.108819 -3.89881,0.674675 -6.17623,2.757774 -6.17623,2.757774 z m 8.82923,17.865374 c -0.0964,0.34666 -0.24873,0.55808 -0.4617,0.71665 -0.2363,0.15234 -0.61871,0.20675 -1.18923,0.20675 h -1.65871 l 0.0979,-2.82462 h -6.8991 l -0.27982,13.80908 c -0.0109,0.99647 0.0855,1.57321 0.81458,2.03491 0.72909,0.57674 2.97541,0.6498 5.99902,0.6498 h 4.3232 l 1.56077,-5.16888 -3.76357,0.20675 -1.25141,0.0731 c -0.171,-0.0731 -0.33423,-0.13991 -0.51611,-0.32179 -0.15857,-0.15701 -0.42595,-0.0606 -0.38242,-1.0571 l 0.0295,-3.53971 3.947,-0.16323 c 2.13129,0 3.04226,-0.69333 3.81953,-1.35402 0.74153,-0.6327 0.98404,-1.36023 1.26386,-2.34426 l 0.66223,-3.13398 h -5.42383 z"
       fill="#fefefe"
       id="path4-3" /><path
       style="display:inline;fill:#4a4847"
       d="m 1466.3089,400.76506 c -0.086,-0.086 -1.5141,-0.29886 -3.1734,-0.47289 -1.6592,-0.17402 -3.8808,-0.54209 -4.9368,-0.81793 -2.0989,-0.54827 -6.0638,-2.27475 -6.539,-2.84741 -0.1993,-0.24014 0.8078,-2.05985 3.0287,-5.47252 1.83,-2.81201 3.4405,-5.11077 3.5788,-5.10834 0.1383,0.002 1.4755,0.43442 2.9715,0.96 2.4382,0.85659 3.1178,0.95559 6.56,0.95559 3.6082,0 3.9452,-0.0554 5.5828,-0.91723 0.9586,-0.50447 2.5487,-1.72847 3.5336,-2.72 3.2782,-3.3001 11.5236,-15.33873 11.5236,-16.82489 0,-0.75463 -10.7458,-61.53617 -11.0775,-62.65788 -0.1551,-0.52429 0.4275,-0.56 9.1359,-0.56 5.1159,0 9.3016,0.0806 9.3016,0.17901 0,0.25748 5.7106,39.77636 5.9276,41.02099 0.2253,1.29159 0.8508,1.33687 1.4543,0.10526 0.252,-0.51411 5.8581,-10.01263 12.4581,-21.10783 l 12,-20.17309 7.7492,-0.0122 7.7491,-0.0122 -0.9075,1.36 c -0.4991,0.748 -6.9527,10.936 -14.3412,22.64 -29.3293,46.45957 -36.399,57.55198 -38.3838,60.22517 -2.5469,3.43002 -6.6784,7.37396 -9.4123,8.98482 -2.1056,1.24067 -5.6774,2.44593 -9.1128,3.07493 -2.0137,0.36864 -4.399,0.47014 -4.6705,0.19854 z m -143.9503,-1.6264 c 10e-5,-0.0126 0.5821,-2.4606 1.2934,-5.44 3.3106,-13.86626 20.7867,-88.89568 20.7867,-89.24267 0,-0.0959 3.852,-0.17477 8.56,-0.17518 l 8.56,-7.5e-4 -0.1044,2.56075 c -0.067,1.65774 0.015,2.56075 0.2352,2.56075 0.1868,0 1.0412,-0.43172 1.8988,-0.95939 10.6895,-6.5773 24.6916,-7.23048 33.1874,-1.54814 3.8964,2.60608 6.1809,5.93336 7.544,10.98753 0.9677,3.58787 0.9713,10.18944 0.01,14.7533 -1.9979,9.46769 -6.2309,17.51144 -12.5282,23.8067 -3.5965,3.59531 -6.8012,5.86809 -11.2833,8.00202 -6.0675,2.88873 -11.3456,3.81564 -18.3419,3.22108 -4.8832,-0.41499 -8.5936,-1.24391 -11.5323,-2.57642 -1.1726,-0.53167 -2.1841,-0.96668 -2.2478,-0.96668 -0.064,0 -0.1195,0.252 -0.1241,0.56 0,0.308 -1.7722,8.15875 -3.9281,17.44611 l -3.9197,16.88611 -9.032,0.0739 c -4.9676,0.0406 -9.0319,0.0636 -9.0319,0.051 z m 46.7201,-43.44692 c 7.7076,-2.7285 13.3109,-10.72372 15.7104,-22.41688 0.9061,-4.4157 0.7644,-9.81331 -0.322,-12.26596 -0.8646,-1.95192 -2.9653,-4.01292 -5.0922,-4.99586 -1.2843,-0.59356 -2.0626,-0.6905 -5.4962,-0.68457 -3.6833,0.006 -4.2407,0.0902 -7.04,1.05931 -1.672,0.57883 -4.192,1.6802 -5.6,2.44751 l -2.56,1.39511 -3.7618,16.26558 c -2.069,8.94607 -3.761,16.48649 -3.76,16.7565 0,0.6339 3.8844,2.16787 6.8818,2.71926 1.232,0.22663 3.752,0.42202 5.6,0.43419 2.7295,0.018 3.7503,-0.11603 5.44,-0.71419 z m -707.17103,12.25555 c -15.67935,-1.97439 -27.07033,-10.65751 -31.52715,-24.03254 -1.36838,-4.10652 -1.88472,-8.37387 -1.69694,-14.02442 0.2729,-8.2121 2.18681,-15.7563 5.96313,-23.50532 8.82585,-18.11067 25.10628,-30.6701 45.31203,-34.95565 3.92933,-0.8334 4.62134,-0.88242 12.48,-0.88417 8.95908,-0.002 13.02432,0.40293 18.8294,1.87551 4.69231,1.1903 10.7706,3.83849 10.7706,4.69253 0,0.25988 -5.93952,9.62039 -7.73202,12.18543 l -0.59895,0.85711 -2.95452,-1.39774 c -8.56083,-4.05001 -21.38247,-5.13113 -29.79115,-2.51198 -12.85525,4.00417 -24.81653,15.87466 -29.12701,28.90594 -1.74703,5.28156 -2.21689,8.40213 -2.02506,13.44957 0.11671,3.07069 0.36437,5.01406 0.85641,6.72 2.08492,7.22863 6.75129,12.98322 12.9723,15.99748 4.74711,2.30012 8.71162,2.85682 16.16,2.26922 5.95814,-0.47003 11.22967,-1.54492 16.6009,-3.385 2.3545,-0.80661 4.31837,-1.42497 4.36416,-1.37413 0.0458,0.0508 0.61363,2.61243 1.26186,5.69243 0.64823,3.08 1.24995,5.90003 1.33716,6.26673 0.13318,0.55999 -0.15686,0.80828 -1.81159,1.55089 -5.03384,2.25905 -12.28773,4.20108 -19.19249,5.13826 -4.3996,0.59716 -17.1194,0.88939 -20.45107,0.46985 z m 352.45103,0.132 c -9.8843,-1.06476 -17.8426,-4.6773 -22.02135,-9.99619 -1.75549,-2.23446 -3.50635,-5.77673 -4.21199,-8.52154 -0.72781,-2.83108 -0.94873,-7.55834 -0.50844,-10.88 0.20995,-1.584 3.68476,-17.11306 7.72178,-34.50902 4.03702,-17.39596 7.34,-31.68796 7.34,-31.76 0,-0.072 4.4017,-0.13098 9.7816,-0.13098 9.167,0 9.7709,0.0352 9.612,0.56 -0.1684,0.55643 -8.7831,37.70987 -12.1498,52.4 -2.2538,9.83401 -2.4438,10.93183 -2.4438,14.12302 0,5.82879 1.6102,9.3487 5.4493,11.91239 4.5719,3.05298 13.3006,3.70561 19.8353,1.48303 7.5088,-2.55392 13.7607,-8.86528 16.8121,-16.97195 0.73,-1.93958 14.8633,-61.88766 14.8633,-63.0447 0,-0.39142 1.3687,-0.46179 8.9816,-0.46179 8.4031,0 8.971,0.0361 8.8173,0.56 -0.09,0.308 -1.8224,7.688 -3.8491,16.4 -8.3313,35.81218 -10.7693,46.04281 -11.5383,48.41809 -2.447,7.5578 -7.3431,14.72669 -13.3795,19.59029 -6.5398,5.26919 -14.1019,8.5765 -23.432,10.24816 -2.7977,0.50126 -12.9342,0.87698 -15.68,0.58119 z m -111.51996,-0.41974 c -5.93241,-0.85259 -10.2119,-3.55511 -12.09034,-7.63511 -1.76028,-3.82334 -1.24942,-10.12138 1.21952,-15.03468 2.57195,-5.1183 6.86441,-9.12729 12.94264,-12.08793 5.66258,-2.75818 11.43599,-3.94087 19.59557,-4.01415 2.07493,-0.0186 5.06352,-0.12664 6.6413,-0.24 l 2.86869,-0.20612 0.59291,-2.56 c 1.2735,-5.49863 0.32259,-8.56172 -3.19397,-10.28848 -1.82084,-0.8941 -1.96029,-0.91145 -7.29632,-0.90766 -6.07942,0.004 -8.52912,0.39895 -14.19564,2.28685 -1.82361,0.60757 -3.34876,1.06071 -3.38924,1.00698 -0.0405,-0.0537 -0.41358,-2.01518 -0.82913,-4.35877 -0.65262,-3.68066 -0.69222,-4.30072 -0.29076,-4.55206 0.92045,-0.57626 7.89816,-2.94067 11.34477,-3.84421 6.18326,-1.62096 9.34487,-2.01533 16.16,-2.01578 5.42035,-3.5e-4 6.57626,0.0914 8.8,0.69823 5.6564,1.54366 8.96325,3.95353 10.95492,7.98339 1.17224,2.37187 1.20432,2.53034 1.1773,5.81491 -0.0261,3.17733 -0.28922,4.48134 -4.45787,22.0966 -4.39637,18.57746 -4.43027,18.74985 -4.45222,22.64 l -0.0221,3.92 h -9.40013 -9.40013 l 0.14277,-2.72 c 0.0785,-1.496 0.0145,-2.72 -0.14222,-2.72 -0.15674,0 -0.88692,0.40714 -1.62263,0.90477 -3.66299,2.47757 -8.03712,4.41619 -11.89766,5.27305 -2.81405,0.62459 -7.4574,0.89109 -9.76,0.56017 z m 16.52629,-12.21067 c 2.02873,-0.62209 7.53474,-3.23942 8.87253,-4.21764 0.41533,-0.30369 1.01095,-2.30096 2.12446,-7.12388 0.85102,-3.68603 1.49902,-6.75017 1.43998,-6.8092 -0.059,-0.059 -2.78358,0.12465 -6.05456,0.40819 -8.73112,0.75685 -12.48559,1.95523 -15.72549,5.01939 -4.01329,3.7956 -4.62227,9.72545 -1.22724,11.94996 2.43557,1.59585 6.83746,1.91783 10.57032,0.77318 z m 287.35927,12.16221 c -15.0071,-1.58367 -24.533,-11.07219 -24.5459,-24.44953 -0.02,-21.02897 19.0291,-39.08504 42.2603,-40.0566 15.4603,-0.64656 27.3246,7.04278 29.9462,19.40828 0.5241,2.47246 0.5823,7.6487 0.1187,10.56832 -2.1228,13.36883 -12.0909,25.36725 -25.8514,31.11692 -3.9513,1.65099 -9.2236,2.97117 -13.6291,3.41272 -3.8602,0.38691 -4.6314,0.3869 -8.2988,-1.1e-4 z m 11.6529,-12.22146 c 5.9445,-2.02657 10.7993,-6.83793 14.2502,-14.12277 1.8818,-3.97266 2.6872,-7.48334 2.6853,-11.7053 0,-5.28275 -1.3348,-9.01205 -4.1658,-11.6601 -1.9154,-1.79165 -3.5874,-2.63562 -5.9871,-3.02206 -7.0892,-1.14169 -14.7531,3.16264 -19.2695,10.8225 -2.3352,3.96049 -4.1931,9.89645 -4.668,14.91383 -0.4052,4.28166 0.9204,9.2176 3.199,11.91211 1.0323,1.22066 3.1555,2.53149 5.0689,3.12948 2.2088,0.69029 6.4519,0.56248 8.887,-0.26769 z m 201.0657,12.25302 c -7.735,-1.07821 -12.4471,-5.11216 -13.1912,-11.29287 -1.2675,-10.52861 7.0162,-21.22152 19.6299,-25.33905 4.1682,-1.36065 7.3285,-1.77998 15.9907,-2.12171 5.3364,-0.21052 8.3912,-0.45342 8.5302,-0.67825 0.119,-0.19265 0.4651,-1.63055 0.769,-3.19533 1.0079,-5.18887 0.1148,-7.75711 -3.2765,-9.42236 -1.6729,-0.82145 -2.2419,-0.92263 -5.7585,-1.02393 -5.8014,-0.16713 -10.5115,0.60151 -16.6831,2.72248 -1.2899,0.44331 -2.3856,0.75739 -2.435,0.69797 -0.049,-0.0594 -0.4476,-2.0307 -0.8852,-4.38061 l -0.7956,-4.27257 1.4706,-0.63051 c 2.5894,-1.11024 7.7279,-2.81761 10.8992,-3.62149 5.9149,-1.49936 9.0616,-1.87555 15.6913,-1.87599 6.9356,-4.5e-4 9.3928,0.43479 13.3328,2.36166 5.2672,2.5759 8.2753,7.90513 7.6403,13.53539 -0.1157,1.02515 -2.1712,10.24115 -4.5678,20.48 l -4.3576,18.61608 -0.024,4.08 -0.024,4.08 h -9.36 -9.36 v -2.72 c 0,-1.496 -0.068,-2.72 -0.15,-2.72 -0.082,0 -1.1689,0.65909 -2.4142,1.46465 -6.328,4.09361 -14.3606,6.13615 -20.6716,5.25644 z m 15.6114,-11.90763 c 0.9374,-0.21259 3.5764,-1.32859 5.8644,-2.48 l 4.16,-2.09346 0.7131,-2.88 c 1.3563,-5.47717 2.4443,-10.70924 2.2645,-10.88903 -0.099,-0.0993 -2.7921,0.0475 -5.9841,0.3261 -8.4477,0.7374 -12.2622,1.96324 -15.5558,4.99918 -3.8241,3.52494 -4.5266,9.60429 -1.3695,11.85229 2.0768,1.47885 6.3221,1.97802 9.9074,1.16492 z M 714.03874,366.2076 c 0,-0.0847 3.44205,-15.02468 7.64901,-33.2 4.20695,-18.17532 9.27638,-40.10204 11.2654,-48.72604 1.98901,-8.624 3.62964,-15.71068 3.64583,-15.74817 0.0447,-0.1034 18.49815,-2.02285 18.56846,-1.93141 0.0534,0.0695 -9.3225,40.5649 -9.92791,42.87958 -0.31816,1.21639 0.0232,1.14738 3.45999,-0.69949 3.93999,-2.11728 7.81324,-3.64031 11.97441,-4.70853 2.95319,-0.75813 4.08416,-0.88485 7.92481,-0.88795 2.75526,-0.002 5.03438,0.15762 5.92,0.41519 8.14597,2.36918 11.07105,8.67604 8.81495,19.00621 -0.5859,2.6827 -8.77526,38.1524 -9.93597,43.03457 l -0.17117,0.72 h -8.95391 c -4.92464,0 -8.9539,-0.11608 -8.9539,-0.25795 0,-0.14187 2.11414,-9.32187 4.69808,-20.4 5.22703,-22.4098 5.47938,-24.07604 4.00536,-26.44662 -1.1231,-1.80621 -3.56347,-2.87349 -6.69781,-2.92925 -3.59233,-0.0639 -6.0497,0.59949 -10.66451,2.879 l -4.085,2.01781 -0.4587,2.0085 c -0.25229,1.10468 -2.60492,11.2605 -5.22806,22.56848 l -4.76936,20.55997 -9.04,3e-5 c -4.972,2e-5 -9.04,-0.0692 -9.04,-0.15393 z m 71.69015,-0.086 c 0.006,-0.132 3.22529,-14.064 7.1549,-30.96 l 7.14475,-30.72 9.02826,-0.085 c 8.50403,-0.0801 9.01799,-0.0522 8.85143,0.48 -0.31325,1.00096 -14.26949,60.97975 -14.26949,61.32502 0,0.11 -4.032,0.2 -8.96,0.2 -4.928,0 -8.95543,-0.108 -8.94985,-0.24 z m 32.66185,-2.24 c 2.31382,-9.86374 13.728,-59.26213 13.728,-59.41216 0,-0.10331 3.86417,-0.18784 8.58704,-0.18784 h 8.58703 l -0.25589,2 c -0.14075,1.1 -0.32386,2.468 -0.40692,3.04 -0.1976,1.36077 0.21547,1.34417 2.69366,-0.10826 6.33283,-3.71157 14.77013,-6.21116 20.95508,-6.20804 7.16895,0.004 12.19412,2.61681 14.45386,7.5163 0.74817,1.62217 0.90471,2.44424 1.00917,5.29953 l 0.12363,3.37952 -5.17005,22.38048 c -2.84353,12.30922 -5.31208,22.92043 -5.48567,23.58043 l -0.31561,1.2 h -8.97309 -8.97309 l 0.22415,-1.04 c 0.12328,-0.572 2.22837,-9.68 4.67799,-20.24 2.44961,-10.56 4.53657,-20.064 4.63769,-21.12 0.25563,-2.66961 -0.26533,-4.32734 -1.79389,-5.7083 -1.58788,-1.43455 -3.29506,-1.91819 -6.73509,-1.90802 -2.09661,0.006 -3.30672,0.20641 -5.28,0.87359 -2.09226,0.7074 -6.32565,2.77677 -8.05107,3.93554 -0.28694,0.1927 -10.66893,43.9547 -10.66893,44.97152 0,0.12962 -4.08369,0.23567 -9.07488,0.23567 h -9.07488 z m 256.42846,1.90138 c 0.1544,-0.48641 5.6934,-24.158 12.6875,-54.22138 l 1.6936,-7.28 h 8.4561 8.456 l -0.2062,1.84 c -0.1134,1.012 -0.2867,2.38 -0.385,3.04 -0.1162,0.78036 -0.053,1.2 0.1806,1.2 0.1976,0 1.8303,-0.78218 3.6281,-1.73818 13.2539,-7.04775 26.6207,-7.48975 32.3916,-1.07108 2.1944,2.44065 2.8475,4.47579 2.8526,8.88926 0,3.63191 -0.064,3.97271 -5.2055,26.08 -2.8653,12.32 -5.2884,22.724 -5.3845,23.12 l -0.1748,0.72 h -8.96 -8.96 l 0.1803,-0.72 c 2.1723,-8.67453 9.2809,-40.33484 9.4022,-41.87473 0.097,-1.23673 0.01,-2.58976 -0.2112,-3.25889 -0.4937,-1.49596 -2.5115,-3.29258 -4.2438,-3.77863 -2.2868,-0.64164 -6.1885,-0.50141 -8.8981,0.31979 -2.4444,0.74084 -7.5488,3.24055 -8.5612,4.1926 -0.3972,0.37354 -2.039,6.97086 -5.6788,22.81933 l -5.12,22.29388 -9.0616,0.003 c -8.5963,0.003 -9.0521,-0.0264 -8.8779,-0.57529 z m 72.8195,0.26401 c 0,-0.17304 2.8129,-12.44904 6.251,-27.28 3.438,-14.83097 6.6346,-28.65739 7.1034,-30.72539 l 0.8524,-3.76 h 8.9339 8.9339 l -0.1393,0.72 c -0.077,0.396 -3.2974,14.36248 -7.1573,31.03663 l -7.018,30.31663 -8.88,0.003 c -5.6076,0.002 -8.88,-0.11257 -8.88,-0.31124 z m 109.7704,0.0746 c 0.01,-0.132 3.2103,-14.064 7.1211,-30.96 l 7.1106,-30.72 8.5113,-0.0851 8.5113,-0.0851 -0.2418,1.68513 c -0.5513,3.8424 -0.5714,4.40514 -0.1568,4.40514 0.2229,0 1.4692,-0.58575 2.7696,-1.30166 7.52,-4.14009 13.5954,-5.86187 20.7643,-5.88463 3.6096,-0.0115 4.6951,0.10427 6.6014,0.70378 5.9675,1.87675 8.885,6.12932 8.8137,12.84724 -0.03,2.79042 -0.5324,5.21651 -5.4274,26.19209 -2.9671,12.71425 -5.4704,23.19257 -5.563,23.28515 -0.093,0.0926 -4.1276,0.13001 -8.9668,0.0832 l -8.7985,-0.0851 4.7382,-20.48 c 5.2082,-22.51159 5.4065,-23.80403 4.0275,-26.23909 -1.9188,-3.38805 -8.3126,-4.22884 -14.2517,-1.8741 -3.0601,1.21326 -7.0995,3.60525 -7.4246,4.39655 -0.1529,0.37215 -2.5485,10.50464 -5.3236,22.51664 l -5.0457,21.84 h -8.8897 c -4.8894,0 -8.8851,-0.108 -8.8794,-0.24 z M 808.916,289.94161 c -1.57705,-0.73715 -3.15859,-2.48847 -3.68348,-4.0789 -0.57299,-1.73617 -0.23803,-4.80214 0.73278,-6.70739 1.07634,-2.11234 3.69564,-4.66115 5.93928,-5.77944 2.54955,-1.27076 5.71425,-1.4454 7.86578,-0.43406 2.71164,1.27462 4.23504,4.12099 3.94101,7.36353 -0.31817,3.50882 -3.37952,7.41791 -7.19178,9.18331 -2.42847,1.12458 -5.74415,1.3221 -7.60359,0.45295 z m 361.4796,-0.27274 c -4.8279,-2.54213 -4.8468,-9.0137 -0.04,-13.78502 2.3113,-2.2943 4.6711,-3.40686 7.5233,-3.54692 1.9675,-0.0966 2.4528,0.002 3.989,0.80831 4.7743,2.50669 4.7718,9.53221 0,14.00035 -2.212,2.06905 -4.696,3.16573 -7.504,3.31306 -1.9704,0.10338 -2.4474,0.008 -3.9631,-0.78978 z M 732.7277,240.36156 c 0.15438,-0.50235 2.60693,-11.04851 9.96759,-42.8613 1.3109,-5.66571 2.38345,-10.52518 2.38345,-10.79882 0,-0.44711 -4.27501,-0.50575 -42.1854,-0.5787 l -42.1854,-0.0812 5.39471,-23.2 c 2.9671,-12.76 7.75818,-33.40365 10.64685,-45.87477 2.88867,-12.47113 5.30999,-22.732651 5.38071,-22.803371 0.0707,-0.0707 6.46129,-0.0911 14.20125,-0.0452 l 14.07265,0.0834 -1.49297,6.331841 c -0.82114,3.48251 -1.3927,6.39381 -1.27015,6.46955 0.12256,0.0757 1.74494,-0.86593 3.60529,-2.09261 7.46952,-4.925261 14.75668,-8.157181 22.47246,-9.966731 2.66142,-0.62418 4.02753,-0.68609 18,-0.81568 8.316,-0.0771 15.12,-0.20965 15.12,-0.2945 0,-0.20045 6.01905,-26.13831 6.43073,-27.71187 l 0.31394,-1.2 h 14.40655 c 7.9236,0 14.33248,0.11984 14.24196,0.26632 -0.24635,0.39859 -6.59318,27.62763 -6.59318,28.28589 0,0.54086 2.00963,0.56779 42.37421,0.56779 h 42.3742 l -0.28712,1.04 c -0.15791,0.572 -3.95284,16.829661 -8.43317,36.128131 -5.75504,24.78908 -8.43777,35.77362 -9.13989,37.42357 -1.47682,3.47048 -4.10323,7.19048 -7.1245,10.09102 -3.13372,3.0085 -6.18961,4.92182 -10.09036,6.31769 l -2.79337,0.99955 -34.32,0.0883 c -18.876,0.0486 -34.32,0.17684 -34.32,0.28504 0,0.10819 -2.808,12.31137 -6.24,27.11816 -3.432,14.8068 -6.24,27.02653 -6.24,27.15496 0,0.12844 -6.4897,0.23352 -14.42156,0.23352 -13.58705,0 -14.41161,-0.0324 -14.24948,-0.56 z m 17.31,-74.4 c 1.02259,-4.30184 12.00104,-51.79444 12.00104,-51.9163 0,-0.09 -12.65639,-0.1637 -28.12531,-0.1637 h -28.12531 l -0.1806,0.72 c -0.41227,1.64366 -12.04878,51.80117 -12.04878,51.93457 0,0.08 12.66926,0.14543 28.1539,0.14543 h 28.15391 z m 81.15329,0.35581 c 0.59826,-0.20031 1.55159,-0.70847 2.11851,-1.12924 2.49249,-1.84996 2.27438,-1.13822 8.27137,-26.9906 3.06783,-13.22507 5.57787,-24.1072 5.57787,-24.18252 0,-0.0753 -12.69848,-0.10014 -28.21884,-0.0552 l -28.21884,0.0817 -6.01267,25.92 c -3.30696,14.256 -6.01648,26.1 -6.02116,26.32 -0.0117,0.55209 50.85813,0.58679 52.50376,0.0358 z m 44.76775,74.32965 c 0,-0.151 2.74402,-11.995 6.09783,-26.32 14.3592,-61.33203 34.54217,-148.363861 34.54217,-148.950771 0,-0.38619 2.17043,-0.45469 14.4061,-0.45469 h 14.40609 l -0.22113,0.88 c -1.70949,6.80295 -2.85322,11.96742 -2.67476,12.07771 0.12251,0.0757 1.86547,-0.94092 3.87323,-2.2592 6.74232,-4.42697 15.47169,-8.30918 22.37047,-9.9488 2.25923,-0.53695 6.64646,-0.57594 74.79996,-0.66482 39.82,-0.0519 72.4,-0.0413 72.4,0.0235 0,0.0649 -8.1196,35.023021 -18.0437,77.684761 -11.682,50.21915 -18.3962,78.47983 -19.0438,80.15642 -2.6676,6.90698 -8.9162,13.45261 -15.4711,16.20671 -4.6506,1.95397 1.7802,1.83206 -96.96136,1.83812 -50.12406,0.003 -90.48,-0.11689 -90.48,-0.26898 z m 172.40666,-20.06887 c 1.952,-0.97273 3.424,-2.81176 4.0793,-5.09659 0.2524,-0.88 4.7718,-20.176 10.0431,-42.88 5.2712,-22.704 11.9706,-51.51754 14.8875,-64.0301 2.9169,-12.512551 5.3034,-22.988551 5.3034,-23.280001 0,-0.49161 -5.1333,-0.5299 -71.04,-0.5299 -39.07196,0 -71.03996,0.0705 -71.03996,0.15661 0,0.0861 -1.14309,5.01813 -2.54021,10.96 -3.77782,16.066921 -29.13979,125.177481 -29.13979,125.363261 0,0.0881 31.00373,0.16013 68.89717,0.16013 H 1046.713 Z M 928.95469,204.62328 c 0.0967,-0.25206 1.14445,-4.60806 2.32829,-9.68 l 2.15243,-9.22172 20.32019,-0.0824 20.32018,-0.0823 2.6273,-11.27766 c 1.44501,-6.20271 2.62467,-11.38565 2.62148,-11.51765 -0.003,-0.132 -9.12498,-0.24 -20.27063,-0.24 h -20.26481 l 2.26481,-9.61143 2.26481,-9.61143 20,0.009 c 11,0.005 20.17241,-0.10162 20.38314,-0.23703 0.21073,-0.13542 1.45735,-4.8504 2.77028,-10.47774 1.31293,-5.62735 2.48812,-10.62754 2.61155,-11.11154 l 0.22441,-0.88 h -20.35469 c -11.19508,0 -20.35469,-0.0591 -20.35469,-0.13125 0,-0.0722 1.008,-4.46694 2.24,-9.76613 1.232,-5.29919 2.24,-9.66813 2.24,-9.70876 -1e-5,-0.0406 24.69599,-0.0739 54.87996,-0.0739 30.184,0 54.88,0.10797 54.88,0.23993 0,0.13196 -0.9424,4.23596 -2.0941,9.12 -1.1518,4.88404 -2.1238,9.16807 -2.16,9.52007 -0.065,0.63079 -0.3603,0.6423 -20.5253,0.8 l -20.4594,0.16 -2.4948,10.72 c -1.3722,5.896 -2.4975,10.9 -2.5006,11.12 0,0.31585 4.2585,0.4 20.2642,0.4 h 20.2699 l -2.2904,9.84 -2.2904,9.84 -20.2615,0.0685 c -11.1437,0.0377 -20.319,0.12618 -20.3894,0.1966 -0.1068,0.1068 -5.2282,21.83471 -5.2282,22.18104 0,0.0626 3.5476,0.11381 7.8835,0.11381 h 7.8835 l -0.2235,-3.76 c -0.1229,-2.068 -0.4304,-5.26107 -0.6835,-7.0957 -0.253,-1.83464 -0.46,-3.38264 -0.46,-3.44 0,-0.0574 4.5196,-0.1043 10.0437,-0.1043 h 10.0436 l 0.1882,1.36 c 0.1034,0.748 0.2848,3.988 0.4031,7.2 l 0.215,5.84 h 2.6793 c 2.6151,0 2.6753,0.0172 2.5107,0.72 -1.9769,8.44393 -4.3236,18.68883 -4.3236,18.87579 0,0.13431 -24.7635,0.24421 -55.02992,0.24421 -47.62509,0 -55.00629,-0.0617 -54.85409,-0.45828 z m 216.28401,35.78014 c -4.7049,-0.97871 -8.1148,-3.36665 -9.7024,-6.79451 -0.7007,-1.51316 -0.8538,-2.35428 -0.94,-5.16735 -0.1025,-3.34366 -0.081,-3.45335 4.3618,-22.55569 2.4556,-10.55763 4.3969,-19.30563 4.3138,-19.44 -0.083,-0.13437 -4.7602,-0.24431 -10.3936,-0.24431 -9.6082,0 -10.2319,-0.0347 -10.0679,-0.56 0.259,-0.82974 4.3483,-18.43072 4.3483,-18.71579 0,-0.13431 4.752,-0.24421 10.56,-0.24421 8.8661,0 10.56,-0.0723 10.56,-0.45051 0,-0.24778 1.44,-6.64764 3.2,-14.22191 1.76,-7.57427 3.2,-13.92354 3.2,-14.10949 0,-0.23051 -3.306,-0.33809 -10.39,-0.33809 -8.8018,0 -10.3635,-0.0689 -10.217,-0.45052 0.095,-0.24779 1.1509,-4.67579 2.3463,-9.84 l 2.1734,-9.38948 41.9984,-0.0812 c 33.5599,-0.0649 41.9674,-5.8e-4 41.8447,0.32 -0.084,0.22066 -1.1441,4.68421 -2.3547,9.91902 l -2.2011,9.51783 -17.3477,0.002 -17.3476,0.002 -0.3214,1.2 c -0.3594,1.34242 -6.4233,27.57218 -6.4233,27.78463 0,0.0745 7.776,0.13537 17.28,0.13537 9.504,0 17.28,0.0913 17.28,0.20298 0,0.24232 -3.7338,16.39332 -4.1883,18.11702 l -0.3164,1.2 h -17.2487 c -9.8389,0 -17.3251,0.12336 -17.4263,0.28716 -0.474,0.76697 -6.6831,28.24284 -6.6991,29.64412 -0.024,2.10442 0.9527,3.71566 2.7919,4.60602 1.3233,0.64061 1.8561,0.6627 15.9811,0.6627 h 14.6121 l -0.2989,0.72 c -0.1643,0.396 -1.1764,4.536 -2.2491,9.2 -1.0727,4.664 -2.0248,8.732 -2.1159,9.04 -0.1558,0.52695 -1.5289,0.55846 -23.264,0.53391 -18.9073,-0.0213 -23.5048,-0.11063 -25.3384,-0.49205 z m 74.9623,0.18736 c -4.154,-0.69932 -7.9112,-2.61596 -9.5424,-4.86774 -1.5231,-2.10266 -2.0519,-4.1572 -2.0386,-7.92148 0.012,-3.27184 0.3163,-4.66565 11.6184,-53.12 16.4589,-70.56284 25.3203,-108.824141 25.3203,-109.326611 0,-0.35808 2.4938,-0.43339 14.3503,-0.43339 h 14.3503 l -1.3806,5.84 c -0.7593,3.212 -1.4596,6.164 -1.5563,6.56 -0.097,0.396 -0.039,0.72 0.1292,0.72 0.1679,0 1.5746,-0.84682 3.1261,-1.88182 6.0505,-4.03615 12.8128,-7.38425 18.7402,-9.27843 6.0746,-1.94124 6.3654,-1.95705 36.0224,-1.95846 25.5471,-0.001 26.9727,0.0285 26.8152,0.55871 -0.091,0.308 -3.8576,16.472 -8.3692,35.920001 -5.0609,21.81582 -8.5659,36.27246 -9.1505,37.74218 -1.4427,3.62716 -3.7054,7.20721 -6.3149,9.99168 -2.6407,2.81767 -7.0075,5.9116 -9.8518,6.97998 -4.2648,1.60199 -4.3641,1.60616 -38.2125,1.60616 h -31.6457 l -0.1663,0.72 c -0.091,0.396 -0.5871,2.52 -1.1014,4.72 -8.6763,37.11031 -12.1956,52.89532 -12.0118,53.87534 0.325,1.73196 1.3251,3.06949 2.7939,3.73624 1.2388,0.56235 2.1816,0.61496 11.1358,0.62139 l 9.7824,0.007 -2.2624,9.75728 -2.2624,9.75727 -18.4,-0.0349 c -10.12,-0.0192 -19.083,-0.14989 -19.9177,-0.29042 z m 92.3209,-110.30922 c 1.0112,-4.356 1.8382,-8.172 1.8377,-8.48 -9e-4,-0.52887 -1.482,-0.55984 -26.6409,-0.55706 l -26.64,0.003 -1.8589,8.23705 c -1.0225,4.53039 -1.8505,8.34506 -1.84,8.47706 0.01,0.132 12.008,0.24 26.6612,0.24 h 26.6424 z m -48.0137,-16.56942 c 1.2297,-1.03464 7.1623,-4.5592 10.3972,-6.17692 3.7253,-1.86292 8.1319,-3.53028 12.2533,-4.63632 l 3.68,-0.98759 14.1451,-0.11573 c 12.9268,-0.10575 14.1587,-0.16215 14.3037,-0.65487 0.3264,-1.1085 3.7112,-15.758421 3.7112,-16.062441 0,-0.20641 -9.2934,-0.31671 -26.6853,-0.31671 h -26.6853 l -0.1798,0.72 c -0.7169,2.87205 -6.6096,28.486951 -6.6096,28.731431 0,0.53804 0.6759,0.33529 1.6695,-0.50085 z m 14.1792,126.69152 c -4.6749,-0.84374 -7.776,-2.707 -9.017,-5.4177 -1.5801,-3.45147 -1.6545,-4.64256 -2.1789,-34.90445 -0.271,-15.64062 -0.4928,-29.55405 -0.4928,-30.91872 v -2.48123 l 14.16,-5.2e-4 14.16,-5.2e-4 0.01,1.36052 c 0.01,0.74829 0.041,3.91652 0.08,7.04052 l 0.07,5.68 5.84,-0.002 c 9.3573,-0.003 9.3432,0.007 11.2929,-8.2317 l 1.3457,-5.68652 10.892,-0.0842 10.8921,-0.0842 -0.2978,1.04416 c -0.1638,0.57429 -1.0854,4.42817 -2.0481,8.56417 -1.306,5.61082 -2.0495,8.12825 -2.9285,9.91582 -2.1713,4.41524 -5.6365,6.98059 -11.5471,8.54831 -2.9306,0.77731 -3.7269,0.83971 -13.0412,1.02187 l -9.92,0.194 0.1062,10.56 c 0.1017,10.11163 0.136,10.62022 0.8079,11.97835 0.5009,1.01273 1.1027,1.63045 2.1041,2.16 1.3902,0.73516 1.5017,0.74165 12.731,0.74165 6.2307,0 11.2584,0.11346 11.1727,0.25213 -0.2261,0.36586 -4.3619,18.15063 -4.3619,18.75709 0,0.46219 -1.7732,0.50805 -18.64,0.48206 -14.7224,-0.0227 -19.1762,-0.12549 -21.1913,-0.48918 z m 137.2653,-0.2021 c 0.091,-0.396 0.5259,-2.232 0.9656,-4.08 0.4398,-1.848 0.7998,-3.468 0.8,-3.6 2e-4,-0.132 -15.1677,-0.24 -33.7066,-0.24 h -33.707 l 0.684,-2.8 c 0.3761,-1.54 1.3963,-5.93154 2.267,-9.75897 l 1.583,-6.95897 4.96,-0.006 c 2.728,-0.003 5.1188,-0.11173 5.3128,-0.24103 0.2766,-0.18434 16.2429,-68.48146 32.6528,-139.675101 l 1.8256,-7.92 h 14.1844 c 7.8014,0 14.1844,0.07 14.1844,0.15548 0,0.0855 -0.6625,2.97506 -1.4721,6.42119 -0.8097,3.44614 -1.4035,6.33443 -1.3195,6.41843 0.084,0.084 1.7185,-0.87392 3.6322,-2.12871 4.3828,-2.8738 12.6908,-6.96877 17.0794,-8.41833 7.0234,-2.31987 6.0494,-2.23778 28.0301,-2.36241 l 19.8702,-0.11267 -2.1762,9.21351 c -1.1968,5.06743 -2.1824,9.53751 -2.1901,9.93351 -0.014,0.71171 -0.066,0.72 -4.494,0.72 -2.464,0 -4.48,0.0797 -4.48,0.177 0,0.15408 -16.4234,71.012931 -26.0967,112.594391 -1.8388,7.90426 -3.3433,14.56426 -3.3433,14.8 0,0.3362 0.8982,0.42861 4.1661,0.42861 4.1568,0 4.1657,0.002 3.9981,0.72 -2.4814,10.6342 -4.3242,18.59777 -4.3242,18.68653 0,0.0624 -1.9237,0.11347 -4.275,0.11347 h -4.275 l -0.869,3.76 c -0.478,2.068 -0.94,4.012 -1.0266,4.32 -0.147,0.52257 -1.1082,0.56 -14.3821,0.56 h -14.2245 z m 9.7624,-42.08 c 1.8226,-7.876 3.3685,-14.536 3.4352,-14.8 0.1068,-0.4223 -1.6087,-0.46962 -14.2711,-0.39361 l -14.3925,0.0864 -0.22,1.03361 c -0.2762,1.29774 -6.0912,26.31935 -6.3942,27.51361 l -0.2232,0.88 h 14.376 14.376 z m -19.6599,-23.94792 c 6.7379,-4.46141 16.4197,-8.64736 22.8635,-9.88511 1.496,-0.28735 3.2094,-0.62247 3.8075,-0.74472 l 1.0876,-0.22225 3.3116,-14.24 c 1.8214,-7.832 3.312,-14.42 3.3124,-14.64 7e-4,-0.31402 -3.0575,-0.4 -14.2268,-0.4 h -14.2276 l -0.3123,1.2 c -0.1718,0.66 -2.3502,9.96968 -4.8409,20.68817 -2.4907,10.7185 -4.6031,19.6825 -4.6943,19.92 -0.3346,0.87211 0.8103,0.38247 3.9193,-1.67609 z m 11.5035,-49.28127 c 8.1543,-5.33475 20.9099,-10.37081 26.2678,-10.37081 0.8455,0 1.1759,-0.16957 1.4032,-0.72 0.2663,-0.64496 6.729,-28.345901 6.729,-28.842461 0,-0.11227 -6.4349,-0.16665 -14.2999,-0.12083 l -14.2998,0.0833 -4.7011,20.160001 c -2.5856,11.088 -4.8063,20.556 -4.9349,21.04 -0.35,1.31779 0.2235,1.13402 3.8357,-1.22919 z m 39.3074,115.57099 c 0.097,-0.25201 1.1561,-4.63577 2.3542,-9.74168 l 2.1784,-9.28348 6.08,-0.0983 c 10.0652,-0.16276 8.8509,1.09229 25.76,-26.62509 6.952,-11.39574 12.6797,-20.8891 12.7282,-21.09637 0.067,-0.28631 -3.9121,-0.35563 -16.56,-0.28852 -10.8973,0.0578 -16.6482,-0.0217 -16.6482,-0.23031 0,-0.17525 0.936,-4.33759 2.08,-9.24963 1.144,-4.91204 2.08,-9.16441 2.08,-9.44969 0,-0.47226 1.6459,-0.51871 18.3784,-0.51871 17.2267,0 18.3889,-0.0351 18.5445,-0.56 0.3778,-1.27435 4.3571,-18.79749 4.3571,-19.18701 0,-0.34717 -3.2813,-0.40802 -18.2362,-0.33817 -16.0895,0.0751 -18.2185,0.0287 -18.0855,-0.39482 0.1489,-0.47387 3.7202,-15.82461 4.1505,-17.84 l 0.2221,-1.04 h 50.8445 c 41.906,0 50.8161,0.074 50.6829,0.42115 -0.089,0.23163 -1.1293,4.55634 -2.3121,9.61046 l -2.1506,9.1893 -17.9178,-0.008 c -9.8548,-0.005 -18.0996,0.10825 -18.3218,0.2509 -0.3136,0.20137 -3.2043,11.78392 -4.7054,18.85403 l -0.2203,1.03737 18.2159,0.0826 18.2159,0.0826 -2.2497,9.68 -2.2496,9.68 h -19.7297 -19.7296 l -3.0917,5.08371 c -1.7005,2.79605 -3.0918,5.24405 -3.0918,5.44 0,0.2529 2.501,0.35629 8.6184,0.35629 7.9332,0 8.6313,0.0445 8.78,0.56 0.089,0.308 1.2577,6.896 2.5974,14.64 2.5348,14.65194 2.9007,16.26633 4.2669,18.82355 1.3476,2.52233 2.1588,2.90979 6.4832,3.09645 l 3.7067,0.16 -2.2444,9.68 -2.2444,9.68 -8.6619,-0.004 c -7.188,-0.003 -9.1519,-0.1055 -11.5419,-0.59952 -8.5492,-1.76717 -12.3477,-6.10296 -14.0492,-16.03628 -2.2864,-13.34756 -4.4417,-25.46494 -4.5497,-25.57867 -0.2271,-0.23901 -0.4824,0.16598 -8.2584,13.09867 -9.5703,15.91716 -11.2611,18.4657 -14.2467,21.47527 -3.9924,4.02426 -8.1271,6.1986 -13.6034,7.15358 -4.0214,0.70128 -26.8926,0.72958 -26.6252,0.033 z M 1134.9264,111.6012 c 0.097,-0.4178 1.1507,-4.96228 2.3407,-10.09883 l 2.1637,-9.339201 5.1628,-0.1008 5.1627,-0.10081 2.4652,-1.21943 c 3.159,-1.56269 7.4226,-5.56256 10.1069,-9.48172 2.2801,-3.32905 5.0346,-8.8449 6.5613,-13.13885 l 1.0809,-3.04 14.9141,-0.0832 c 8.2027,-0.0457 14.914,-0.0127 14.914,0.0734 0,0.40801 -3.1015,7.08824 -4.6526,10.02104 -1.201,2.27095 -1.6164,3.33901 -1.3399,3.44512 0.2204,0.0846 8.8376,0.11548 19.1492,0.0687 l 18.7485,-0.0851 -0.4163,1.76 c -0.229,0.968 -1.2516,5.39476 -2.2726,9.83724 l -1.8563,8.07724 -24.4972,0.003 -24.4973,0.003 -1.1027,1.15313 c -2.7776,2.904361 -9.0605,7.201571 -13.4228,9.180531 -6.4759,2.93777 -9.2156,3.43866 -19.9646,3.65008 l -8.9247,0.17553 z m 379.9123,-9.07884 c -6.7968,-1.27878 -11.5678,-4.754771 -14.396,-10.488451 -2.3075,-4.67815 -3.0902,-8.25706 -3.2817,-15.00705 -0.1006,-3.54385 -0.013,-6.85867 0.2346,-8.88 l 0.3951,-3.2253 15.564,-2.8e-4 15.564,-2.8e-4 -0.1084,4.94086 c -0.1392,6.35052 0.2184,7.76671 2.5003,9.90118 2.1895,2.04802 5.6409,3.39852 8.6854,3.39852 0.7669,0 0.9332,0.11532 0.8072,0.56 -0.087,0.308 -1.1324,4.772 -2.3225,9.92 l -2.1638,9.360001 -9.6191,-0.0289 c -6.4934,-0.0195 -10.347,-0.16583 -11.8591,-0.45032 z m 28.3895,0.10883 c 0.088,-0.2363 1.1487,-4.713631 2.3563,-9.949631 l 2.1955,-9.52 1.1294,-0.006 c 1.9166,-0.009 5.453,-0.89587 7.6205,-1.91015 3.2003,-1.49762 5.1216,-3.08039 6.699,-5.51893 1.3708,-2.11891 3.7479,-7.13769 4.5496,-9.60536 l 0.3898,-1.2 h 15.4952 c 11.3158,0 15.4952,0.0976 15.4952,0.36202 0,0.9665 -2.2072,6.67187 -4.131,10.67798 -6.8974,14.36364 -15.9208,22.89874 -27.4831,25.996021 -2.9865,0.8 -3.5167,0.8372 -13.7915,0.96761 -8.8497,0.11233 -10.658,0.0618 -10.5249,-0.294 z"
       id="path18"
       transform="matrix(0.43606932,0,0,0.43606932,2.2259394e-4,6.675633e-4)" /></g></svg>
