<svg xmlns="http://www.w3.org/2000/svg" viewBox="2.5 2.5 38.5 31.5" role="img" aria-label="GOATEDBUY">
  <path d="M 14.000 23.250 L 15.000 29.500 L 17.500 32.875 L 19.500 33.500 L 22.375 33.125 L 25.750 30.375 L 27.000 27.125 L 26.750 25.250 L 23.500 29.250 L 22.125 30.125 L 19.750 30.250 L 17.875 28.500 L 16.625 23.375 L 15.625 22.875 Z M 40.000 9.000 L 37.750 5.750 L 33.500 3.250 L 27.750 3.125 L 22.500 5.875 L 21.500 5.500 L 21.125 4.000 L 18.625 5.000 L 15.500 5.125 L 13.125 6.750 L 16.875 6.625 L 14.375 11.750 L 13.875 10.250 L 14.875 9.000 L 14.500 8.125 L 9.750 7.250 L 6.500 8.250 L 4.125 10.500 L 3.125 12.625 L 3.125 17.125 L 5.000 20.250 L 7.625 22.000 L 6.250 18.625 L 6.875 15.375 L 8.750 14.000 L 12.625 14.250 L 13.625 12.625 L 13.250 20.250 L 14.125 22.125 L 16.250 22.125 L 18.125 17.250 L 21.500 13.000 L 26.000 10.250 L 30.250 9.875 L 32.375 10.875 L 33.750 12.750 L 33.875 15.875 L 31.875 17.875 L 28.250 17.250 L 27.375 17.750 L 29.625 20.000 L 31.750 20.875 L 34.250 20.875 L 36.750 19.750 L 39.750 15.875 L 40.500 12.000 Z M 15.375 13.625 L 15.875 13.875 L 15.625 15.125 L 15.125 15.000 Z M 20.000 6.875 L 20.125 8.000 L 16.125 13.000 L 16.000 11.625 L 19.125 6.875 Z" fill="#ED2939" fill-rule="evenodd"/>
</svg>
